<svg width="34" height="26" viewBox="0 0 34 26" fill="none" xmlns="http://www.w3.org/2000/svg">
<g clip-path="url(#clip0_0_1663)">
<rect width="34" height="26" rx="13" fill="#121212" fill-opacity="0.7"/>
<path d="M10.9648 17H12.0195V8.54492H10.9707L8.7207 10.1621V11.2754L10.8711 9.7168H10.9648V17ZM14.5039 18.7988L17.5508 8.17578H16.6953L13.6484 18.7988H14.5039ZM20.3164 13.1035H21.3652C22.5547 13.1035 23.2871 13.7129 23.2871 14.6914C23.2871 15.6406 22.4961 16.2793 21.3828 16.2793C20.293 16.2793 19.5312 15.7109 19.4375 14.8203H18.418C18.4941 16.2559 19.6777 17.1992 21.3945 17.1992C23.0762 17.1992 24.3711 16.1387 24.3711 14.7207C24.3711 13.543 23.6445 12.7988 22.5488 12.623V12.5293C23.416 12.2773 24.0488 11.6035 24.0547 10.584C24.0605 9.40039 23.0996 8.3457 21.4297 8.3457C19.7188 8.3457 18.6699 9.35938 18.5645 10.7363H19.5898C19.6777 9.78711 20.3398 9.26562 21.3594 9.26562C22.3789 9.26562 22.9824 9.91016 22.9824 10.7012C22.9824 11.5801 22.291 12.2012 21.3184 12.2012H20.3164V13.1035Z" fill="#F9F9F9"/>
</g>
<defs>
<clipPath id="clip0_0_1663">
<rect width="34" height="26" fill="white"/>
</clipPath>
</defs>
</svg>
